<?xml version="1.0" encoding="UTF-8"?>
<svg width="86px" height="86px" viewBox="0 0 86 86" version="1.1" xmlns="http://www.w3.org/2000/svg" xmlns:xlink="http://www.w3.org/1999/xlink">
    <!-- Generator: Sketch 42 (36781) - http://www.bohemiancoding.com/sketch -->
    <title>Group</title>
    <desc>Created with Sketch.</desc>
    <defs>
        <circle id="path-1" cx="41" cy="41" r="41"></circle>
    </defs>
    <g id="Page-1" stroke="none" stroke-width="1" fill="none" fill-rule="evenodd">
        <g id="Invoice-enmarche" transform="translate(-255.000000, -50.000000)">
            <g id="Group" transform="translate(257.000000, 52.000000)">
                <mask id="mask-2" fill="white">
                    <use xlink:href="#path-1"></use>
                </mask>
                <use id="Mask" stroke="#000000" stroke-width="3" xlink:href="#path-1"></use>
                <g id="Group-2" mask="url(#mask-2)" fill-rule="nonzero" fill="#000000">
                    <g transform="translate(-2.000000, 11.000000)" id="Shape">
                        <path d="M1.51950927,48.63 C1.77939696,48.6290105 2.03450607,48.5600621 2.25950927,48.43 C6.85293743,45.5784326 12.6660811,45.5784326 17.2595093,48.43 C19.9863788,50.0464826 23.0897864,50.9188849 26.2595093,50.96 C29.4292321,50.9188849 32.5326397,50.0464826 35.2595093,48.43 C39.8529374,45.5784326 45.6660811,45.5784326 50.2595093,48.43 C55.7819461,51.815486 62.7370724,51.815486 68.2595093,48.43 C72.8529374,45.5784326 78.6660811,45.5784326 83.2595093,48.43 C83.7239545,48.6997356 84.2970219,48.7012029 84.7628423,48.4338492 C85.2286628,48.1664956 85.5164672,47.6709384 85.5178424,47.1338492 C85.5192175,46.59676 85.2339546,46.0997355 84.7695093,45.83 C79.2470724,42.444514 72.2919461,42.444514 66.7695093,45.83 C63.0794368,48.1348636 58.5297558,48.6001719 54.4495093,47.09 L59.4495093,34.46 C59.6068115,34.0631985 59.5876131,33.6181737 59.3967229,33.2363932 C59.2058326,32.8546127 58.8613318,32.5722391 58.4495093,32.46 L55.2795093,31.63 L55.2795093,22.5 C55.2795093,21.6715729 54.6079364,21 53.7795093,21 L49.4695093,21 L49.4695093,17.3 C49.4695093,16.4715729 48.7979364,15.8 47.9695093,15.8 L44.2695093,15.8 L44.2695093,1.5 C44.2695093,0.671572875 43.5979364,0 42.7695093,0 C41.9410821,0 41.2695093,0.671572875 41.2695093,1.5 L41.2695093,15.8 L37.5695093,15.8 C36.7410821,15.8 36.0695093,16.4715729 36.0695093,17.3 L36.0695093,21 L31.7695093,21 C30.9410821,21 30.2695093,21.6715729 30.2695093,22.5 L30.2695093,31.59 L27.0795093,32.5 C26.6676868,32.6122391 26.3231859,32.8946127 26.1322957,33.2763932 C25.9414054,33.6581737 25.9222071,34.1031985 26.0795093,34.5 L30.9695093,47.13 C26.9184792,48.5889547 22.4221435,48.109837 18.7695093,45.83 C13.2470724,42.444514 6.29194613,42.444514 0.769509265,45.83 C0.171442242,46.1635551 -0.124795042,46.8598067 0.049596511,47.5220233 C0.223988064,48.1842399 0.824728342,48.6442767 1.50950927,48.64 L1.51950927,48.63 Z M39.0695093,18.83 L46.4695093,18.83 L46.4695093,21.03 L39.0695093,21.03 L39.0695093,18.83 Z M33.2495093,24.03 L52.2495093,24.03 L52.2495093,30.84 L43.1495093,28.5 C42.9004349,28.4343053 42.6385836,28.4343053 42.3895093,28.5 L33.2495093,30.89 L33.2495093,24.03 Z M29.4595093,34.93 L42.7695093,31.5 L56.0595093,34.97 L51.7695093,45.82 C46.2470724,42.434514 39.2919461,42.434514 33.7695093,45.82 L33.6895093,45.82 L29.4595093,34.93 Z"></path>
                        <path d="M1.51950927,58.63 C1.77939696,58.6290105 2.03450607,58.5600621 2.25950927,58.43 C6.85293743,55.5784326 12.6660811,55.5784326 17.2595093,58.43 C19.9863788,60.0464826 23.0897864,60.9188849 26.2595093,60.96 C29.4292321,60.9188849 32.5326397,60.0464826 35.2595093,58.43 C39.8529374,55.5784326 45.6660811,55.5784326 50.2595093,58.43 C55.7819461,61.815486 62.7370724,61.815486 68.2595093,58.43 C72.8529374,55.5784326 78.6660811,55.5784326 83.2595093,58.43 C83.7239545,58.6997356 84.2970219,58.7012029 84.7628424,58.4338493 C85.2286628,58.1664956 85.5164672,57.6709384 85.5178424,57.1338492 C85.5192175,56.59676 85.2339546,56.0997355 84.7695093,55.83 C79.2470724,52.444514 72.2919461,52.444514 66.7695093,55.83 C62.1754089,58.6792092 56.3636096,58.6792092 51.7695093,55.83 C46.2470724,52.444514 39.2919461,52.444514 33.7695093,55.83 C29.1760811,58.6815674 23.3629374,58.6815674 18.7695093,55.83 C13.2470724,52.444514 6.29194613,52.444514 0.769509265,55.83 C0.171442242,56.1635551 -0.124795042,56.8598067 0.049596511,57.5220233 C0.223988064,58.1842399 0.824728342,58.6442767 1.50950927,58.64 L1.51950927,58.63 Z"></path>
                    </g>
                </g>
            </g>
        </g>
    </g>
</svg>